# xmcd CD database file
#
# Track frame offsets:
#	150
#	19986
#	53839
#	80214
#	94357
#	119601
#	147795
#	174430
#	191646
#	215682
#	245057
#	263276
#	292407
#
# Disc length: 4382 seconds
#
# Revision: 0
# Processed by: cddbd v1.5.1PL0 Copyright (c) Steve Scherf et al.
# Submitted via: CDex 1.40Release
#
DISCID=cd111c0d
DTITLE=D.C. 'Raven' Valdes - Romancing the Spirit
DYEAR=2003
DGENRE=Native American
TTITLE0=Romancing the Spirit
TTITLE1=Migration
TTITLE2=Peruvian Evening
TTITLE3=Call to Ocean Spirits
TTITLE4=Return to Spirit
TTITLE5=Indians
TTITLE6=Mother Earth
TTITLE7=Africa
TTITLE8=Aborigine
TTITLE9=North America
TTITLE10=Father Sky
TTITLE11=Water Song
TTITLE12=Fire Song
EXTD=YEAR: 2003 ID3G: 64
EXTT0=
EXTT1=
EXTT2=
EXTT3=
EXTT4=
EXTT5=
EXTT6=
EXTT7=
EXTT8=
EXTT9=
EXTT10=
EXTT11=
EXTT12=
PLAYORDER=
